<mxfile host="65bd71144e">
    <diagram id="lltTEsevrm_KqFaZjVP8" name="Page-1">
        <mxGraphModel dx="1118" dy="764" grid="1" gridSize="10" guides="1" tooltips="1" connect="1" arrows="1" fold="1" page="1" pageScale="1" pageWidth="850" pageHeight="1100" math="0" shadow="0">
            <root>
                <mxCell id="0"/>
                <mxCell id="1" parent="0"/>
                <mxCell id="2" value="" style="rounded=0;whiteSpace=wrap;html=1;strokeColor=#FF0000;" vertex="1" parent="1">
                    <mxGeometry width="850" height="80" as="geometry"/>
                </mxCell>
                <mxCell id="3" value="My Name Here" style="rounded=0;whiteSpace=wrap;html=1;strokeColor=#00FFFF;" vertex="1" parent="1">
                    <mxGeometry y="10" width="240" height="60" as="geometry"/>
                </mxCell>
                <mxCell id="4" value="Resume" style="rounded=0;whiteSpace=wrap;html=1;strokeColor=#00FFFF;" vertex="1" parent="1">
                    <mxGeometry x="740" y="20" width="100" height="40" as="geometry"/>
                </mxCell>
                <mxCell id="7" value="Contact me" style="rounded=0;whiteSpace=wrap;html=1;strokeColor=#00FFFF;" vertex="1" parent="1">
                    <mxGeometry x="630" y="20" width="100" height="40" as="geometry"/>
                </mxCell>
                <mxCell id="8" value="My works" style="rounded=0;whiteSpace=wrap;html=1;strokeColor=#00FFFF;" vertex="1" parent="1">
                    <mxGeometry x="520" y="20" width="100" height="40" as="geometry"/>
                </mxCell>
                <mxCell id="9" value="About me" style="rounded=0;whiteSpace=wrap;html=1;strokeColor=#00FFFF;" vertex="1" parent="1">
                    <mxGeometry x="410" y="20" width="100" height="40" as="geometry"/>
                </mxCell>
                <mxCell id="10" value="[Banner Picture]" style="rounded=0;whiteSpace=wrap;html=1;" vertex="1" parent="1">
                    <mxGeometry y="80" width="850" height="200" as="geometry"/>
                </mxCell>
                <mxCell id="11" value="Cool subtitle here!" style="rounded=0;whiteSpace=wrap;html=1;" vertex="1" parent="1">
                    <mxGeometry x="600" y="210" width="240" height="60" as="geometry"/>
                </mxCell>
                <mxCell id="12" value="" style="rounded=0;whiteSpace=wrap;html=1;strokeColor=#FF0000;" vertex="1" parent="1">
                    <mxGeometry y="290" width="850" height="230" as="geometry"/>
                </mxCell>
                <mxCell id="13" value="About me" style="rounded=0;whiteSpace=wrap;html=1;strokeColor=#00FFFF;" vertex="1" parent="1">
                    <mxGeometry x="10" y="300" width="270" height="210" as="geometry"/>
                </mxCell>
                <mxCell id="14" value="About me stuff and things" style="rounded=0;whiteSpace=wrap;html=1;strokeColor=#00FFFF;" vertex="1" parent="1">
                    <mxGeometry x="290" y="300" width="550" height="210" as="geometry"/>
                </mxCell>
                <mxCell id="15" value="" style="rounded=0;whiteSpace=wrap;html=1;strokeColor=#FF0000;" vertex="1" parent="1">
                    <mxGeometry y="530" width="850" height="420" as="geometry"/>
                </mxCell>
                <mxCell id="16" value="My works" style="rounded=0;whiteSpace=wrap;html=1;strokeColor=#00FFFF;" vertex="1" parent="1">
                    <mxGeometry x="10" y="540" width="270" height="400" as="geometry"/>
                </mxCell>
                <mxCell id="17" value="My work 1" style="rounded=0;whiteSpace=wrap;html=1;strokeColor=#00FFFF;" vertex="1" parent="1">
                    <mxGeometry x="290" y="540" width="550" height="160" as="geometry"/>
                </mxCell>
                <mxCell id="18" value="My work 2" style="rounded=0;whiteSpace=wrap;html=1;strokeColor=#00FFFF;" vertex="1" parent="1">
                    <mxGeometry x="290" y="710" width="270" height="110" as="geometry"/>
                </mxCell>
                <mxCell id="19" value="My work 4" style="rounded=0;whiteSpace=wrap;html=1;strokeColor=#00FFFF;" vertex="1" parent="1">
                    <mxGeometry x="290" y="830" width="270" height="110" as="geometry"/>
                </mxCell>
                <mxCell id="20" value="My work 3" style="rounded=0;whiteSpace=wrap;html=1;strokeColor=#00FFFF;" vertex="1" parent="1">
                    <mxGeometry x="570" y="710" width="270" height="110" as="geometry"/>
                </mxCell>
                <mxCell id="21" value="My work 5" style="rounded=0;whiteSpace=wrap;html=1;strokeColor=#00FFFF;" vertex="1" parent="1">
                    <mxGeometry x="570" y="830" width="270" height="110" as="geometry"/>
                </mxCell>
                <mxCell id="22" value="Subtitle" style="rounded=0;whiteSpace=wrap;html=1;strokeColor=#FFFF00;" vertex="1" parent="1">
                    <mxGeometry x="290" y="640" width="120" height="50" as="geometry"/>
                </mxCell>
                <mxCell id="23" value="Subtitle" style="rounded=0;whiteSpace=wrap;html=1;strokeColor=#FFFF00;" vertex="1" parent="1">
                    <mxGeometry x="290" y="780" width="120" height="30" as="geometry"/>
                </mxCell>
                <mxCell id="24" value="Subtitle" style="rounded=0;whiteSpace=wrap;html=1;strokeColor=#FFFF00;" vertex="1" parent="1">
                    <mxGeometry x="290" y="900" width="120" height="30" as="geometry"/>
                </mxCell>
                <mxCell id="25" value="Subtitle" style="rounded=0;whiteSpace=wrap;html=1;strokeColor=#FFFF00;" vertex="1" parent="1">
                    <mxGeometry x="570" y="900" width="120" height="30" as="geometry"/>
                </mxCell>
                <mxCell id="26" value="Subtitle" style="rounded=0;whiteSpace=wrap;html=1;strokeColor=#FFFF00;" vertex="1" parent="1">
                    <mxGeometry x="570" y="780" width="120" height="30" as="geometry"/>
                </mxCell>
                <mxCell id="27" value="" style="rounded=0;whiteSpace=wrap;html=1;strokeColor=#FF0000;" vertex="1" parent="1">
                    <mxGeometry y="960" width="850" height="190" as="geometry"/>
                </mxCell>
                <mxCell id="28" value="Contact me" style="rounded=0;whiteSpace=wrap;html=1;strokeColor=#00FFFF;" vertex="1" parent="1">
                    <mxGeometry x="10" y="970" width="270" height="170" as="geometry"/>
                </mxCell>
                <mxCell id="29" value="Contacts and things and stuff" style="rounded=0;whiteSpace=wrap;html=1;strokeColor=#00FFFF;" vertex="1" parent="1">
                    <mxGeometry x="290" y="970" width="550" height="170" as="geometry"/>
                </mxCell>
            </root>
        </mxGraphModel>
    </diagram>
</mxfile>